<?xml version="1.0" encoding="UTF-8"?>
<svg width="2666.7" height="2666.7" version="1.1" viewBox="0 0 2666.7 2666.7" xml:space="preserve" xmlns="http://www.w3.org/2000/svg" xmlns:cc="http://creativecommons.org/ns#" xmlns:dc="http://purl.org/dc/elements/1.1/" xmlns:rdf="http://www.w3.org/1999/02/22-rdf-syntax-ns#"><metadata><rdf:RDF><cc:Work rdf:about=""><dc:format>image/svg+xml</dc:format><dc:type rdf:resource="http://purl.org/dc/dcmitype/StillImage"/><dc:title/></cc:Work></rdf:RDF></metadata><defs><clipPath id="clipPath20"><path d="m0 0h2e3v2e3h-2e3z"/></clipPath><clipPath id="clipPath28"><path d="m-2.2494 1767.5h1803.1v-1769.8h-1803.1z"/></clipPath></defs><g transform="matrix(1.3333 0 0 -1.3333 0 2666.7)"><path d="m0 0h2e3v2e3h-2e3z" fill="#7aa77a"/><g clip-path="url(#clipPath20)"><g clip-path="url(#clipPath28)"><g transform="translate(1676.1 90.625)"><path d="m0 0-123.79 248.15-136.74 74.132 63.208 38.932 173.81-220.19h36.471l-50.306 120.56 27.236-18.131 98.134-135.14 36.808-201.24h-78.474z" fill="#251b5b"/></g><g transform="translate(1676.1 90.625)"><path d="m0 0 46.349-92.922h-385.99v348.44l-87.435 144.26 3.507 36.294 88.015-29.119-43.501-45.736 279.92-361.21z" fill="#26358c"/></g><g transform="translate(1638.7 352.21)"><path d="m0 0 50.307-120.56h-36.471l-173.81 220.19 20.448-6.757z" fill="#26358c"/></g><g transform="translate(1552.3 338.77)"><path d="m0 0 123.79-248.15h-99.131l-279.92 361.21 43.501 45.737 138.22-45.737-63.208-38.931z" fill="#0066b2"/></g><g transform="translate(1064.9 1176.6)"><path d="m0 0 13.658-4.103h58.446l14.238 3.717v0.016l109.23 28.571h147.6l5.228-1.239 22.314-5.276 31.981-7.561v-27.864l-15.283-16.779-19.578-85.94-14.495-16.425-3.813-4.327v-0.017l-7.689-8.719-63.546-18.774h-114.5l-51.206 26.287-15.621 38.899-21.96 54.666-5.599 13.948h-46.106l-8.124-25.017-22.716-69.899-56.033-50.676h-150.96l-59.25 28.153-3.781 11.294-31.081 92.873-12.002 5.775v35.457l55.438 9.861 39.109 6.95 39.993 7.111h116.43zm197.39 16.248-48.279-11.325-35.392-8.285-20.914-21.316v-24.936l21.927-73.407 45.849-30.164h110.39l7.69 2.171 49.019 13.804 23.937 21.09 6.935 19.257 10.36 28.748v62.131l-21.767 12.306-20.189 11.423h-123.15zm-416.07-11.341-45.849-7.867-23.938-29.762v-27.751l9.797-36.808 10.924-41.023 56.306-28.749h140.96l50.482 47.458 18.469 61.294 4.585 15.186-8.703 29.762-66.233 23.858h-114.22z" fill="#19142e"/></g><g transform="translate(1403.3 1551.2)"><path d="m0 0 53.796-127.38-5.84-5.631-16.184 16.184v-19.707l-47.055 47.056h-0.161v11.567l-56.243 56.226h50z" fill="#8e2963"/></g><g transform="translate(1444.5 1391.5)"><path d="m0 0v-97.78l-8.574-8.574 7.609-7.61v-41.119l-7.947 3.217v-41.313l-22.314 5.277v133.96l-25.402 61.566v62.613h0.161l47.056-47.056v-13.771z" fill="#2d296a"/></g><g transform="translate(1074.9 475.37)"><path d="m0 0h-53.813l-98.536 48.938h20.93l-15.332 12.87v37.934l60.763-47.458v-11.792l53.893-12.87-29.761 53.089 65.154-39.816h63.546l-43.437 38.207 88.482-21.718 43.435 34.185 39.013 46.252v49.871l36.599-16.087 20.254 25.531 65.284 82.256-5.374 45.849 18.774-10.73 11.262 35.392-14.48 13.674v20.914l17.391-14.478 2.993 42.374-2.735 4.907-4.859 8.768h9.202l-1.995 30.019-7.207 107.93v0.016l3.813 4.327 15.573-77.847v-127.24l-30.76-94.128-19.819-24.245 3.313-3.313-39.607-51.481h-10.73v-10.73l-56.306-49.324v-6.982h9.652l-20.64-14.205-12.629-19.032-42.342-63.819-6.902-4.536-10.248-6.725v20.641l-37.805-32.98h-35.135l-10.184 10.199-12.596-12.612z" fill="#2d296a"/></g><g transform="translate(1343.5 1064.3)"><path d="m0 0v-38.707l-7.69-2.171h-59.459l-36.455 36.47v30.824h55.808l37.242 31.017 5.084-2.591h46.654l26.545 62.469 0.755 1.318 21.767-12.306v-62.131l-10.36-28.748-10.152 23.842z" fill="#ffcf47"/></g><g transform="translate(1421.6 931.46)"><path d="m0 0 1.995-30.02h-9.202l4.858-8.767-55.357-55.358h-33.607v15.316l-19.385 18.693v60.136h110.63z" fill="#ffcf47"/></g><g transform="translate(1423.4 1079.7)"><path d="m0 0-6.935-19.257-23.937-21.091-49.019-13.803v38.707l69.74 39.285z" fill="#bee3ee"/></g><g transform="translate(1363.9 837.31)"><path d="m0 0 55.357 55.357 2.736-4.907-2.993-42.374-17.391 14.479v-20.914l14.479-13.674-11.261-35.393-18.775 10.731 5.374-45.85-65.283-82.256-18.243 21.123-10.569 4.023h21.83l45.849 111.4h-42.905v19.306l8.189-8.173v17.117z" fill="#c5acd3"/></g><g transform="translate(1414.4 1039.4)"><path d="m0 0 7.207-107.93h-110.7v80.437h32.256l63.546 18.775z" fill="#ffe5b8"/></g><g transform="translate(1387.9 1399.1)"><path d="m0 0 25.402-61.567v-133.96l-5.228 1.239h-21.718l-46.381 53.491h-23.874l5.229-5.228h-7.642l-7.979 7.979h-10.779v84.395l-31.371 31.371v127.22h43.34l61.761-58.317z" fill="#ddd946"/></g><g transform="translate(1412 1182.9)"><path d="m0 0-0.756-1.319-26.545-62.468h-46.653v10.264l-3.218 1.689v15.396l1.802 3.217-40.91 20.914h54.794l-23.987 23.729h65.284z" fill="#f5a992"/></g><g transform="translate(1130.2 1647.3)"><path d="m0 0-84.153 69.98 49.34 15.831 45.044-44.241-8.043-8.591 64.881-57.915v44.514l31.773-15.186 34.459-16.458v-29.762l15.138 15.155v39.012l52.558-28.958v-36.196l41.538 41.538 8.736-8.559v-36.599l-26.142-26.143h42.229l5.728-13.577-21.687-21.686h-50l56.243-56.226v-74.18l-19.241 46.622-122.67 115.83h-45.849l-5.421-5.164-29.971 29.971v32.304z" fill="#19142e"/></g><g transform="translate(1294.9 1261.1)"><path d="m0 0h10.778l7.98-7.979h7.641l-5.228 5.228h23.874l46.381-53.491h-34.058l-30.019 14.479h-69.724l-43.87-14.785-0.097 0.306v20.351l70.11 35.891z" fill="#4c2778"/></g><g transform="translate(1372.7 1636.1)"><path d="m0 0-41.538-41.538v36.197l-52.558 28.957v-39.012l-15.138-15.154v29.761l-34.459 16.458v48.343l43.436-15.46-26.142 32.577h43.436z" fill="#4c2778"/></g><g transform="translate(1365 809.06)"><path d="m0 0-45.85-111.4h-21.846l-11.937 4.536v82.465l36.728 18.243v6.161z" fill="#f5a992"/></g><g transform="translate(1352.3 1204.8)"><path d="m0 0h-91.827l-109.24-28.571 18.742 70.27h30.776l-18.983-28.555 17.438-16.635 9.476 3.185 43.87 14.785h69.723z" fill="#ef7d00"/></g><g transform="translate(1350.5 1170.6)"><path d="m0 0h-88.272v22.232l6.418 1.497h57.868z" fill="#ffe5b8"/></g><g transform="translate(1225.8 1142.5)"><path d="m0 0v-8.044l8.72-9.926h26.673l5.63 9.25v11.262h-12.467v-10.248h-16.088v7.706zm-10.987-9.958v10.489l-15.284-6.693v-9.33l-0.081 0.016-10.182-2.124-7.577-1.592v9.749l32.239 19.273v0.016l14.494 8.654h49.663l56.708-29.874 3.218-1.689v-10.264l-5.084 2.59-14.881 7.545-6.58 3.346-11.663-4.44v7.578l-22.651 13.947v-19.031l-8.318-11.535h-42.036l-4.649 1.335-7.336 11.808z" fill="#19142e"/></g><g transform="translate(1336.6 1149.7)"><path d="m0 0-1.802-3.217-49.276 21.525v2.606h10.168z" fill="#882b31"/></g><g transform="translate(1336.4 215.83)"><path d="m0 0v-218.13h-79.633v203.35z" fill="#0066b2"/></g><g transform="translate(1256.8 201.05)"><path d="m0 0-189.03-35.087-267.46 136.74-52.285 59.927-129.91 148.94-64.35-45.576h-67.037l149.61 65.428v-20.785l54.569-49.871v41.554l54.697-69.305 318.53-193.45h121.06l24.068 15.99 81.306 54.022v49.163l-45.046 95.995 3.459 35.666 87.436-144.26v-130.31z" fill="#19142e"/></g><g transform="translate(1334.8 1146.5)"><path d="m0 0v-15.396l-56.708 29.875h-49.663l-0.209 3.25 57.304 3.796z" fill="#b2930e"/></g><g transform="translate(1333 1121.7)"><path d="m0 0-37.242-31.017h-55.808v20.995h44.434l33.735 17.567z" fill="#ef7d00"/></g><g transform="translate(1330.3 837.31)"><path d="m0 0v-17.117l-8.188 8.173v-25.467l-36.728-18.243v49.468l-18.63 13.015v13.53l-15.991 6.467v31.339l14.913-8.366 4.617 3.218 40.621-40.621v18.613l19.386-18.694z" fill="#b13a8d"/></g><g transform="translate(1297.3 697.66)"><path d="m0 0h0.017l10.569-4.022 18.243-21.124-20.255-25.53-36.598 16.087v45.255l16.087-6.113v-0.017z" fill="#772167"/></g><g transform="translate(1284.8 1122.5)"><path d="m0 0 26.705 10.167 6.58-3.346-33.735-17.568h-44.434v7.433h36.196z" fill="#8a6faf"/></g><g transform="translate(1310.9 871.32)"><path d="m0 0v-18.613l-40.621 40.621-8.445 8.446h17.503z" fill="#8a6faf"/></g><g transform="translate(1310.9 931.46)"><path d="m0 0v-60.136l-31.563 30.454h-5.358l-57.384 60.247-18.227 25.741-20.913 50.418 51.206-26.287h26.335c0.21 0 30.775-80.437 30.775-80.437z" fill="#f5a992"/></g><g transform="translate(1310.9 1011.9)"><path d="m0 0v-80.437h-25.129s-30.565 80.437-30.775 80.437z" fill="#ffcf47"/></g><g transform="translate(1263.5 1504)"><path d="m0 0h-142.65l-61.937-81.242h-136.34l-30.807 30.807 34.958 46.815 97.329 27.88-61.133-43.163-16.087-37.275 171.2 92.777 8.044-9.653h41.827l26.754 25.403 5.421 5.164h45.85l60.907-57.513z" fill="#f5a992"/></g><g transform="translate(1299.8 1135.8)"><path d="m0 0v-7.577l-15.042-5.727 4.312 12.306h-11.921v14.946z" fill="#b5e0f1"/></g><g transform="translate(1278.7 1261.1)"><path d="m0 0h-28.41l-15.959-7.979v6.435h-24.936l-8.638-12.999h-204.02v-9.701l-15.781 15.782h-21.719v133.61l-36.598 36.599h136.34l61.937 81.242h142.65v-127.22l31.371-31.371v-84.395z" fill="#ffe5b8"/></g><g transform="translate(1245.5 394.41)"><path d="m0 0v60.328l45.046-95.994v-49.163l-81.307-54.023v85.699l36.261 36.261z" fill="#b2930e"/></g><g transform="translate(1289.1 1134.8)"><path d="m0 0-4.312-12.307-8.687-3.314h-7.239l8.317 11.535v4.086z" fill="#fff"/></g><g transform="translate(1285.6 1170.6)"><path d="m0 0v-2.606l-57.304-3.797-14.285-0.949v5.55l3.217 1.802h45.061z" fill="#882b31"/></g><g transform="translate(1237.1 669.9)"><path d="m0 0v86.984l-59.058-24.71-6.628 6.628h-35.794v25.306l38.401 2.22 69.111 45.013 1.657 1.962h11.938l28.636-28.651v-82.448l-16.088 6.113v-45.255l-37.001-28.555-26.545 35.393z" fill="#ddd946"/></g><g transform="translate(1259.3 831.58)"><path d="m0 0-2.349 10.73 9.797 4.827 18.63-13.015v-49.469l-28.636 28.652h-11.937l14.704 17.342z" fill="#ef7d00"/></g><g transform="translate(1208.5 1225.2)"><path d="m0 0v-20.351l0.097-0.306-9.476-3.185-17.438 16.634 18.983 28.556 8.639 12.999h24.935v-6.435l15.959 7.979h28.41z" fill="#ae348b"/></g><g transform="translate(1239.9 1059.9)"><path d="m0 0 36.454-36.471h-50.933l-45.849 30.164-21.928 73.408v24.936l20.914 21.316 35.393 8.285v-12.71l-32.239-18.098v-8.526l31.032 20.994 1.207 0.08v-10.971l-32.239-19.273v-22.33l29.15-19.98h29.038z" fill="#ef7d00"/></g><g transform="translate(1250.7 898.48)"><path d="m0 0-29.134 16.36h-5.019v47.185l57.383-60.247h-12.145l8.445-8.446-4.617-3.218z" fill="#ffcf47"/></g><g transform="translate(1269.3 663.07)"><path d="m0 0v-49.871l-39.013-46.252-27.75 20.109h-12.468v-26.141l-56.306 10.457-22.523 29.761h57.915l-1.207 49.067 51.481-40.219 12.87 24.534z" fill="#772167"/></g><g transform="translate(1266.9 1145)"><path d="m0 0v-11.262l-5.631-9.25h-26.673l-8.719 9.926v8.044h12.467v-7.706h16.088v10.248h2.011z" fill="#2c2d84"/></g><g transform="translate(1253.2 845.11)"><path d="m0 0-15.315 11.502v-11.261l-2.944-1.657-7.417-4.167v36.97l23.198-9.364 15.992-6.466v-13.531l-9.797-4.826z" fill="#b2930e"/></g><g transform="translate(1262.2 1192.9)"><path d="m0 0v-22.232h-45.062l-3.216-1.803v12.71z" fill="#f5a992"/></g><g transform="translate(1244.8 813.31)"><path d="m0 0-1.657-1.962-69.112-45.014-38.401-2.219-32.416-1.867-9.411 9.412h72.393l26.673 20.318 36.31 27.655 2.027 0.418 20.914 11.534h7.175l0.209-0.932z" fill="#b2930e"/></g><g transform="translate(1229.2 819.63)"><path d="m0 0-3.78-0.772-0.885 4.279 26.223 15.508h0.015l6.195 3.668 2.348-10.731h-7.175l-20.914-11.534z" fill="#19142e"/></g><g transform="translate(1256.9 842.31)"><path d="m0 0-6.194-3.668h-0.016l-115.11-26.963h-44.193l-8.767 8.769v12.386l24.099 2.88 9.958-10.971h38.208l15.717 15.203 44.885 2.445 12.016 0.659v-3.523l7.417 4.167 18.259 1.416z" fill="#ef7d00"/></g><g transform="translate(1256.8 201.05)"><path d="m0 0v-203.35h-258.06l-307.82 307.82 57.11 57.111 52.285-59.927 267.46-136.74z" fill="#26358c"/></g><g transform="translate(1249 490.4)"><path d="m0 0-3.459-35.666v-60.328h-88.48l49.935 102.44 6.901 4.536 42.342 63.82-3.732-38.513z" fill="#ffcf47"/></g><g transform="translate(1253.2 845.11)"><path d="m0 0-18.259-1.416 2.944 1.657v11.261z" fill="#ffe3b5"/></g><g transform="translate(1168.3 902.56)"><path d="m0 0 7.818 5.035h23.729l-4.617 7.239h21.316v-15.009l34.153-13.674v-19.016l-23.198 9.363v-23.198l-14.784 4.022-42.825 33.784-5.823 8.719z" fill="#8a6faf"/></g><g transform="translate(1250.7 898.48)"><path d="m0 0v-12.323l-34.153 13.674v15.009h5.019z" fill="#b2930e"/></g><g transform="translate(1250.7 838.65)"><path d="m0 0-26.223-15.508-89.768-16.49-37.709-0.563-5.599 5.598h44.193z" fill="#b2930e"/></g><g transform="translate(1245.5 394.41)"><path d="m0 0v-16.892l-36.261-36.261v-85.699l-24.067-15.99h-48.407l-148.84 148.86 86.97 86.953h26.093l12.597 12.612 10.184-10.199h35.134l37.806 32.979v-20.64l10.248 6.724-49.935-102.44z" fill="#f5a992"/></g><g transform="translate(1239.9 1111.7)"><path d="m0 0v-20.994h-29.038l-29.15 19.98v12.581l7.577 1.593v-0.016l31.708-13.144z" fill="#b2930e"/></g><g transform="translate(1209.8 1124.1)"><path d="m0 0 12.436-3.571 4.649-1.336h13.079v-7.432h-18.903l-31.708 13.144v0.016l10.182 2.123 0.081-0.016z" fill="#882b31"/></g><g transform="translate(1237.1 756.89)"><path d="m0 0v-86.984h-57.723l-23.198 30.694h23.682l-22.523 13.675 4.489 9.121h25l-8.785 8.784z" fill="#ffe3b5"/></g><g transform="translate(1179.4 669.9)"><path d="m0 0h26.352l26.544-35.393-12.87-24.534-51.48 40.219-13.674 19.708z" fill="#3a876e"/></g><g transform="translate(1230.3 566.94)"><path d="m0 0-43.436-34.186-88.481 21.718v26.545l12.87 20.11 22.523-29.762 56.305-10.457v26.141h12.469z" fill="#4c2778"/></g><g transform="translate(1135.6 782.15)"><path d="m0 0v-10.489h-41.827l-12.211 12.211v17.744l53.267 1.802 18.596 0.628 71.944 14.816 3.78 0.772-36.31-27.655v9.572z" fill="#f3a4bd"/></g><g transform="translate(1229.1 1700.1)"><path d="m0 0v-48.343l-31.772 15.186v-44.514l-64.881 57.915 8.043 8.591-45.045 44.241-49.34-15.83-17.021 17.036h-63.69l93.854-74.405h23.327l11.985-12.612 29.038-30.566-9.186-8.736-84.395 36.358h-57.11l-16.893 9.926-56.708 39.945h-33.382l43.775 43.774h46.315l-29.439 29.425h113.09z" fill="#913649"/></g><g transform="translate(1228.3 1164.2)"><path d="m0 0 0.209-3.25-14.494-8.655v10.956z" fill="#b2930e"/></g><g transform="translate(1227.5 851.29)"><path d="m0 0v-8.237l-12.017-0.659-0.241 4.471-5.744 5.84 3.218 4.617 14.784-4.021z" fill="#ffe3b5"/></g><g transform="translate(1224.5 823.14)"><path d="m0 0 0.885-4.279-71.944-14.817-18.596-0.628-0.114 3.234z" fill="#19142e"/></g><g transform="translate(1214.9 1132.3)"><path d="m0 0 7.336-11.808-12.436 3.571-2.815 8.463h7.915z" fill="#b5e0f1"/></g><g transform="translate(1216.6 931.46)"><path d="m0 0v-16.619h-21.316l-2.285 3.556 9.926 6.371z" fill="#b2930e"/></g><g transform="translate(1216.6 962.02)"><path d="m0 0v-30.565l-13.675-6.693-5.356 4.553h-14.222l-0.885-0.644 10.216 10.409h13.465z" fill="#ef7d00"/></g><g transform="translate(1184.9 996.61)"><path d="m0 0-23.117 37.966v42.503l15.621-38.899 20.913-50.419 18.228-25.74-10.458-22.94h-13.449l6.404 6.531v27.751z" fill="#ffcf47"/></g><g transform="translate(1082.7 832.84)"><path d="m0 0-8.655-1.045v7.432l10.425 5.615 22.892 12.354 7.513-10.022 2.944-3.925h23.198l17.165 14.881 42.456-11.262h14.688l0.241-4.471-44.885-2.446-30.469-1.657-12.066-6.709-16.65 4.698-4.697-0.563z" fill="#ffe3b5"/></g><g transform="translate(1209.5 852.71)"><path d="m0 0 5.744-5.84h-14.688l-42.455 11.262-17.165-14.881h-23.199l-2.944 3.925v18.597h6.033l4.424 11.261h7.239l6.838-9.652 11.857 7.641-5.422 4.232 9.443 6.837h11.262l3.426 5.019 42.825-33.784z" fill="#b2930e"/></g><g transform="translate(1214.9 1143)"><path d="m0 0v-10.489h-7.915l2.815-8.462-10.183 2.928v9.331z" fill="#8ec152"/></g><g transform="translate(1214 1168.8)"><path d="m0 0v-5.55l-1.207-0.08-31.032-20.995v8.527z" fill="#882b31"/></g><g transform="translate(1202.9 924.76)"><path d="m0 0-9.926-6.371-2.413-1.544h-24.356l16.2 11.792 0.032 0.032 0.885 0.644h14.222z" fill="#772167"/></g><g transform="translate(1195.3 914.84)"><path d="m0 0 4.617-7.239h-23.728l-7.819-5.035-9.17 9.153 7.046 5.133h24.357l2.413 1.544z" fill="#b2930e"/></g><g transform="translate(1199.1 953.25)"><path d="m0 0v-7.642l-6.403-6.531h-76.931l17.986 17.986v105.78l-11.261 11.262v57.641h17.39l21.96-54.665v-42.503l23.117-37.967-12.998-12.999v-30.357z" fill="#ffe3b5"/></g><g transform="translate(1199.1 973.36)"><path d="m0 0v-20.109h-27.14v30.357l12.998 12.999z" fill="#fff"/></g><g transform="translate(1114.4 1608)"><path d="m0 0 50.338-21.686 29.971-29.971-26.754-25.402h-41.827l-8.044 9.653-171.2-92.777 16.087 37.275 61.133 43.162h-64.881l-49.066 42.101 117.04-21.042v10.585l-150.02 42.23h114.62l62.244-36.937h93.403l-22.088 22.088h-64.784l-87.677 57.079h57.11z" fill="#2d296a"/></g><g transform="translate(1192.9 801.55)"><path d="m0 0v-9.572l-26.673-20.319h-30.566v10.49z" fill="#ffe3b5"/></g><g transform="translate(1104 921.55)"><path d="m0 0-7.514 5.631h-35.118l-2.671 2.67 9.235 9.234h124.76l-10.215-10.408-0.033-0.032-16.2-11.792-7.046-5.133-16.313-11.889h-22.796l-3.217 12.067z" fill="#ffcf47"/></g><g transform="translate(1178 732.18)"><path d="m0 0 8.784-8.784h-25l-4.488-9.121 22.522-13.675h-23.681l-7.126 9.443-13.434 17.778v10.987h35.795z" fill="#db3534"/></g><g transform="translate(1103.2 762.25)"><path d="m0 0 32.416 1.866v-25.305h-24.163l-16.603-16.603 16.603-24.549h26.834l-9.701 9.717h16.94v-6.773h10.65l23.198-30.695h-25.128l13.674-19.708-31.37-15.282-20.11 23.728-24.437-11.036-26.014 62.918h-112.06l-7.995-6.241-22.893 51.576 13.819 9.17v7.224l34.186 34.202h2.075l11.004-8.881v-36.776l72.522-25.739 21.59 25.739z" fill="#bee3ee"/></g><g transform="translate(1170.6 839.95)"><path d="m0 0-15.717-15.203h-38.208l-9.958 10.972 4.697 0.563 16.651-4.698 12.065 6.709z" fill="#fece4b"/></g><g transform="translate(1169.9 1246.5)"><path d="m0 0-18.741-70.271v-0.016l-14.238-3.716h-58.446l-13.658 4.103v31.82l-19.192 38.08z" fill="#ffcf47"/></g><g transform="translate(1164.1 899.83)"><path d="m0 0 5.823-8.719-3.426-5.019h-11.261l-9.444-6.837 5.422-4.232-11.856-7.641-6.838 9.652h-7.239l-4.424-11.261h-8.446v12.066l-32.787 13.481-7.239-7.047-1.673 3.717v19.739l7.095 7.111h2.831l7.771 6.709h15.556l12.87-9.653 3.217-12.066h22.796l16.314 11.889 9.169-9.154z" fill="#ef7d00"/></g><g transform="translate(1167.9 650.2)"><path d="m0 0 1.207-49.066h-57.915l-19.209 46.476 24.438 11.036 20.109-23.728z" fill="#3a876e"/></g><g transform="translate(1164.7 1618.7)"><path d="m0 0v-32.304l-50.338 21.686 9.186 8.736-29.038 30.566h35.698z" fill="#913649"/></g><g transform="translate(1149.1 710.04)"><path d="m0 0 7.126-9.443h-10.649v6.773z" fill="#ae348b"/></g><g transform="translate(1149.1 710.04)"><path d="m0 0-3.523-2.67h-16.941l9.701-9.717h-26.834l-16.602 24.549 16.602 16.603h24.163v-10.988z" fill="#ae348b"/></g><g transform="translate(1147.4 1565.2)"><path d="m0 0h-93.403l-62.243 36.937h-54.956l-52.155 52.156h71.316l16.892-9.926 87.677-57.079h64.784z" fill="#913649"/></g><g transform="translate(1141.8 516.27)"><path d="m0 0h-63.546l-65.154 39.816v20.512l37.001 31.773v-32.98l48.262-20.914z" fill="#4c2778"/></g><g transform="translate(1134.3 1145.7)"><path d="m0 0 5.599-13.948h-17.391v13.948z" fill="#f59d18"/></g><g transform="translate(690.93 502.32)"><path d="m0 0-20.528 26.014 35.457 22.313 141.52-152.75h57.112v103.02l10.183-14.013h41.087v-49.936l65.364 38.402h53.813l-86.97-86.953 148.84-148.86h-72.651l-318.53 193.45z" fill="#ef7d00"/></g><g transform="translate(1081.6 801.61)"><path d="m0 0-53.619-1.802-11.551 3.186-12.581 3.459 0.628 3.169 23.504-4.585 69.063 1.046 37.709 0.562 0.114-3.233z" fill="#19142e"/></g><g transform="translate(1133.7 1062.8)"><path d="m0 0v-105.78l-17.986-17.986h-47.844l-9.234-9.235-5.165-5.164h-31.033l-0.547 0.612v34.588l11.262 18.227 24.131 72.668 22.716 69.899 17.246 11.069h25.192v-57.642z" fill="#fff"/></g><g transform="translate(1130.2 1647.3)"><path d="m0 0h-35.698l-11.986 12.612h-23.326l-93.854 74.405h63.69l17.021-17.037z" fill="#934d99"/></g><g transform="translate(1122.5 1144.5)"><path d="m0 0v-12.741h-25.192l-17.246-11.069 8.124 25.017h34.314z" fill="#ffcf47"/></g><g transform="translate(1114.8 865.77)"><path d="m0 0v-18.598l-7.513 10.023-22.892-12.355-13.706 13.691v29.456l1.673-3.717 7.239 7.047 32.786-13.482v-12.065z" fill="#8a6faf"/></g><g transform="translate(1092 647.61)"><path d="m0 0 19.209-46.477-12.87-20.109v-26.545l-48.263 20.914v32.98l16.442 20.286 24.984-8.623v27.349z" fill="#772167"/></g><g transform="translate(1077.8 914.84)"><path d="m0 0h-26.625l10.136 12.34h35.118l7.514-5.631h-15.557l-7.771-6.709z" fill="#772167"/></g><g transform="translate(984.12 797.57)"><path d="m0 0-11.004 8.881h30.711l12.581-3.459v-7.738l59.685-23.601h17.696l9.411-9.411-24.968-1.448-90.894 34.186z" fill="#c42e4b"/></g><g transform="translate(1097 806.09)"><path d="m0 0-69.063-1.046-23.504 4.585v0.016l-33.543 6.548 24.067 11.18 15.074-8.044 17.294-7.641h64.076z" fill="#ae348b"/></g><g transform="translate(1081.6 783.87)"><path d="m0 0 12.211-12.211h-17.696l-59.685 23.601v7.738l11.551-3.186 53.619 1.802z" fill="#ef7d00"/></g><g transform="translate(1066.5 628.66)"><path d="m0 0-20.463 7.062v28.959h-14.479l-14.929-22.877-3.974-6.082h-44.24v30.969l-4.006-4.053-8.929 20.108 25.804 27.783h84.685l26.013-62.918-0.498-0.224v-27.35z" fill="#ffe3b5"/></g><g transform="translate(1082.7 820.45)"><path d="m0 0 8.768-8.769h-64.077l-17.294 7.642v5.422l32.642 2.268 7.078-7.288h13.771l-5.453 9.042 7.738 0.643 1.335-2.043 6.837 3.62v0.805l8.655 1.045z" fill="#b2930e"/></g><g transform="translate(1074 831.79)"><path d="m0 0v-0.805l-6.837-3.62-1.335 2.043-5.099 7.803-4.827-4.826 2.188-3.619 5.453-9.042h-13.771l-7.078 7.288-8.913 9.202-23.728-5.631-25.129 15.878 56.033 33.993-7.77 18.099h32.77l4.762-10.57v-29.456l13.706-13.69-10.425-5.615z" fill="#b13a8d"/></g><g transform="translate(1078.2 760.8)"><path d="m0 0-21.59-25.739-72.522 25.739v36.776l3.217-2.589z" fill="#ffe3b5"/></g><g transform="translate(1022.5 924.68)"><path d="m0 0 13.932-15.476h10.183l4.617 5.63h26.61l-7.095-7.11v-19.739l-4.762 10.569h-32.77l-23.134 30.229 7.722 32.094 4.15-0.998v-34.588z" fill="#b2930e"/></g><g transform="translate(1059.2 1163.3)"><path d="m0 0 8.703-29.762-4.585-15.187-0.112 0.032h-50.934v11.069l-38.417 27.348h-68.163l-76.286-36.808v-3.056l-53.024 16.586v10.408l23.937 29.762 45.85 7.867v-8.977h98.439l14.575 14.575h33.785zm-235.55-35.618 71.59 31.934 89.688 4.617 34.491-29.424 2.301 3.008-29.762 28.829h-91.699l-76.609-30.164z" fill="#b2930e"/></g><g transform="translate(1066.5 628.66)"><path d="m0 0-16.441-20.286-33.43 33.43 14.929 22.877h14.479v-28.959z" fill="#3a876e"/></g><g transform="translate(1060.7 837.21)"><path d="m0 0 5.1-7.803-7.739-0.642-2.187 3.619z" fill="#ef7d00"/></g><g transform="translate(1064.9 1208.4)"><path d="m0 0v-31.821l-69.675 20.962h-116.43l-39.993-7.111 54.198 19.048h83.929l30.02-8.977 13.948-4.166 17.969 20.736-28.153 29.409h34.991z" fill="#ef7d00"/></g><g transform="translate(1063.3 1118.3)"><path d="m0 0-18.469-61.293-50.482-47.458h-2.945v49.388l-21.428 21.429 42.278 26.303v11.663h50.934z" fill="#f5a992"/></g><g transform="translate(1051.2 914.84)"><path d="m0 0-4.617-5.63h-10.184l-13.931 15.476h31.033l5.164 5.164 2.671-2.67z" fill="#fece4b"/></g><g transform="translate(1057.3 1050.8)"><path d="m0 0-24.131-72.667h-11.262l-4.15-17.23-7.722-32.095 23.134-30.228h-8.044l-40.219-26.078h-12.87l6.436 6.435h-18.775l-37.243-29.89 49.856 103.09-47.989 47.988h76.947z" fill="#c5acd3"/></g><g transform="translate(1050.1 608.37)"><path d="m0 0-37.001-31.772v-20.512l-37.629 28.732 33.301 33.301-17.583 17.6h21.509l3.973 6.081z" fill="#772167"/></g><g transform="translate(975.45 584.82)"><path d="m0 0 37.629-28.732 29.762-53.089-53.894 12.87v11.792l-60.763 47.458v-37.935l-23.696 19.901-46.252 38.819v-17.294l-15.475 7.304-5.84 2.751-4.826 29.359-11.536 12.741v39.898l63.417-61.084 15.284 8.445 49.066-14.076v-14.077h20.512z" fill="#4c2778"/></g><g transform="translate(1033.8 836.22)"><path d="m0 0 8.913-9.202-32.642-2.269v5.84z" fill="#ef7d00"/></g><g transform="translate(1033.2 898.56)"><path d="m0 0 7.771-18.099-56.034-33.993v26.014l40.219 26.078z" fill="#8a6faf"/></g><g transform="translate(815.12 1212.9)"><path d="m0 0 56.66 35.794h39.141l-4.826-4.826h6.709l8.767 8.768h59.331l15.781-15.782v9.701h13.981l28.152-29.408-17.968-20.737-13.949 4.167v18.05l-58.703 27.928-55.245-37.001-54.198-19.048-39.11-6.95v19.563z" fill="#913649"/></g><g transform="translate(1033.2 978.11)"><path d="m0 0-11.262-18.228-4.15 0.999 4.15 17.229z" fill="#b2930e"/></g><g transform="translate(769.68 1422.8)"><path d="m0 0-13.465-22.394-8.558-8.59-13.096-13.128 47.137 185.34h57.303l38.144 38.144 150.02-42.23v-10.585l-117.04 21.042 49.067-42.101h64.881l-97.33-27.879-34.958-46.815-23.005-30.808h-12.564l43.179 50.547-3.476 4.553-55.775-50.676 11.535 34.057 52.011 45.85h-20.11l-69.175-49.341 7.512 22.523 27.607 26.818-39.142-16.635z" fill="#4c2778"/></g><g transform="translate(1021.7 1137.8)"><path d="m0 0-2.301-3.008-34.491 29.424v2.413h7.03z" fill="#772167"/></g><g transform="translate(1021.1 475.37)"><path d="m0 0-65.364-38.401v49.935h-41.087l-10.184 14.013v56.161l23.697-19.9 15.332-12.87h-20.93z" fill="#db3534"/></g><g transform="translate(1012.3 1118.3)"><path d="m0 0v-11.664l-42.278-26.302-22.072 22.088h6.226l44.868 19.53z" fill="#ef7d00"/></g><g transform="translate(970.72 1134.3)"><path d="m0 0v-1.609l-8.317-14.72-17.294-6.258h-30.905l-10.795 14.672v18.098l-27.879-11.663v-7.803l-6.033 2.172-5.727-2.348v-0.017l-12.774-5.244-21.588-8.881v9.251l76.286 36.808h68.163l38.417-27.349v-11.068l-13.256 3.652-7.192 1.979 4.36 5.63-11.325 8.462-14.141 10.57zm-52.06 6.563h-7.738v-10.167l7.738-9.331h31.178l9.943 12.355v9.653h-13.675v-9.653h-27.446z" fill="#19142e"/></g><g transform="translate(1010.1 824.75)"><path d="m0 0v-5.422l-15.074 8.044-24.068-11.181h-0.015l-4.071-1.898h-14.285v14.351l32.384 17.824 25.129-15.878z" fill="#8a6faf"/></g><g transform="translate(991.17 635.72)"><path d="m0 0 17.583-17.6-33.301-33.3-6.612 5.05h-20.512v14.078l-49.066 14.076-15.283-8.446-63.417 61.084v4.2l26.817 23.197 47.057-62.339h43.436l26.561 26.915 4.006 4.054v-30.969z" fill="#db3534"/></g><g transform="translate(1006.9 1218.6)"><path d="m0 0v-18.05l-30.02 8.977h-83.928l55.245 37.001z" fill="#4c2778"/></g><g transform="translate(1004.5 809.64)"><path d="m0 0v-0.016l-0.628-3.169h-30.711l-9.717 7.834h3.427l4.07 1.899h0.016z" fill="#19142e"/></g><g transform="translate(978.48 1123.8)"><path d="m0 0 6.049 2.188 7.304-2.011 7.191-1.979-44.868-19.53h-6.226l-9.251 9.25h6.436l17.294 6.258z" fill="#ae348b"/></g><g transform="translate(998.75 -2.2967)"><path d="m0 0h-621.93l-70.51 128.59 163.54 163.55v164.09l16.893 12.066h67.036l64.351 45.575 129.91-148.94-57.11-57.112z" fill="#251b5b"/></g><g transform="translate(996.19 1129.6)"><path d="m0 0-4.359-5.63-7.304 2.01-6.049-2.188 3.571 10.506 2.816 3.764z" fill="#b5e0f1"/></g><g transform="translate(991.43 1058.9)"><path d="m0 0v-49.389h-115.9l-40.218 69.772h-49.131l-9.797 36.808v17.342l53.024-16.586v-6.194l21.589 8.881 40.815-40.251h76.496l1.688 1.046z" fill="#ffcf47"/></g><g transform="translate(895.24 819.74)"><path d="m0 0v7.416l27.235 21.863-8.091-16.715 18.533-6.418 52.011 46.588v-26.013l-32.384-17.825v-14.35l-15.686-16.087v-33.173l-13.819-9.17-7.69-5.115-17.906 47.458-2.203-3.813z" fill="#ae348b"/></g><g transform="translate(984.93 1166.6)"><path d="m0 0v-2.413l-89.688-4.617-71.589-31.934v8.8l76.608 30.164z" fill="#772167"/></g><g transform="translate(984.93 872.48)"><path d="m0 0-52.011-46.589-18.533 6.419 8.092 16.715 37.243 29.891h18.774l-6.435-6.436z" fill="#8a6faf"/></g><g transform="translate(984.86 1138.1)"><path d="m0 0-2.815-3.764h-11.326v14.334z" fill="#b5e0f1"/></g><g transform="translate(982.05 1134.3)"><path d="m0 0-3.571-10.505-16.072-5.824 8.318 14.72v1.609z" fill="#fff"/></g><g transform="translate(981.31 710.52)"><path d="m0 0-25.804-27.783-9.572 21.542 7.995 6.241z" fill="#db3534"/></g><g transform="translate(973.12 806.46)"><path d="m0 0h-2.075l-34.186-34.202v25.949l15.686 16.087h10.858z" fill="#ef7d00"/></g><g transform="translate(972.33 952.11)"><path d="m0 0-49.855-103.09-27.236-21.863v-7.416h-70.834l-17.245 17.068v-12.87l-24.936-19.031-37.613 53.62 13.079 3.217 14.078 26.545h-24.132l67.101 67.1h47.586l44.708 44.708h17.31z" fill="#ddd946"/></g><g transform="translate(947.93 1102.5)"><path d="m0 0 22.071-22.088-1.688-1.046h-76.496l-40.815 40.251 12.774 5.245 42.117-22.362z" fill="#78cbea"/></g><g transform="translate(833.71 793.92)"><path d="m0 0v16.618l-9.299 9.202h70.834v-25.354l2.203 3.813 17.907-47.458 7.689 5.116 22.893-51.577-15.702-12.258 19.707-15.284 5.567 6 8.929-20.108-26.561-26.915h-43.437l-47.056 62.339h14.479v22.925l-28.153 40.218z" fill="#f5a992"/></g><g transform="translate(959.78 1143.4)"><path d="m0 0v-9.653l-9.942-12.355h-31.178l-7.738 9.331v10.167h7.738v-7.143h27.445v9.653z" fill="#2c2d84"/></g><g transform="translate(959.19 1386.2)"><path d="m0 0v-133.61h-37.612l-8.768-8.769h-6.709l4.826 4.827h-39.14l-56.66-35.795h-27.269l-40.202 178.96 8.558 8.591 13.465 22.393h86.535l-19.82-23.198 9.652-7.239 22.732 30.437h53.813z" fill="#fff"/></g><g transform="translate(959.19 1187.1)"><path d="m0 0-14.575-14.575h-98.44v8.977l32.577 5.598z" fill="#f5a992"/></g><g transform="translate(955.97 1738.1)"><path d="m0 0h-46.315l-43.775-43.774h33.382l56.708-39.945h-143.45l30.84 44.498 70.383 68.645h12.79z" fill="#934d99"/></g><g transform="translate(945.93 704.28)"><path d="m0 0 9.572-21.542-5.566-6-19.707 15.283z" fill="#ae348b"/></g><g transform="translate(890.11 1119.8)"><path d="m0 0 22.427-8.06h26.141l9.251-9.25h-42.037l-32.48 17.246 2.123 3.989v1.32z" fill="#b2930e"/></g><g transform="translate(936.81 1602.2)"><path d="m0 0h-59.668l-112.89-16.49-70.43-52.348 34.507 43.5h-24.662l-4.826 10.183 29.488 15.026-13.143 5.888v15.026l28.957 13.674 77.494 62.195h21.718l-30.84-44.498h72.137z" fill="#8e2963"/></g><g transform="translate(922.59 1422.8)"><path d="m0 0h-53.813l23.005 30.808 0.033-0.033z" fill="#ffcf47"/></g><g transform="translate(914.21 1111.7)"><path d="m0 0h-1.673l-22.427 8.06v10.843h13.305v-4.231z" fill="#fff"/></g><g transform="translate(814.74 955.39)"><path d="m0 0h-39.142v84.009h11.246l0.451 0.145 3.78-11.293 59.25-28.153h56.709l-44.708-44.708z" fill="#fff"/></g><g transform="translate(722.81 561.31)"><path d="m0 0 3.636 2.284 12.549 20.56 15.009-15.01 7.706-7.706h98.826l43.951-60.521v-103.02h-57.112l-141.52 152.75z" fill="#c5acd3"/></g><g transform="translate(860.54 561.44)"><path d="m0 0-17.776 24.47 15.475-7.304v17.294l46.252-38.819v-56.162z" fill="#b2930e"/></g><g transform="translate(903.69 1507.1)"><path d="m0 0-52.011-45.85-11.535-34.057v-4.424h-70.463l40.701 67.696 39.142 16.635-27.606-26.818-7.513-22.523 69.176 49.341z" fill="#ffcf47"/></g><g transform="translate(903.41 1144.5)"><path d="m0 0v-13.867h-13.305v-10.843l-14.575 5.244v7.802z" fill="#b5e0f1"/></g><g transform="translate(895.92 1477.9)"><path d="m0 0 3.476-4.553-43.179-50.547h-16.072v4.424z" fill="#ffcf47"/></g><g transform="translate(721.38 1422.8)"><path d="m0 0 40.733 115.43-99.742-55.502-20.109-12.066v18.501h16.489l35.055 44.177h0.016l70.431 52.348 112.89 16.49-38.144-38.144h-57.303l-47.137-185.34h-28.748z" fill="#2d296a"/></g><g transform="translate(875.53 1125)"><path d="m0 0v-1.319l-2.123-3.99-9.637 5.116v0.016l5.728 2.349z" fill="#b2930e"/></g><g transform="translate(835.31 1079.3)"><path d="m0 0 40.219-69.771h-22.12l-56.306 28.748-10.924 41.023z" fill="#bee3ee"/></g><g transform="translate(868.78 1422.8)"><path d="m0 0-22.731-30.437-9.653 7.239 19.821 23.198z" fill="#4c2778"/></g><g transform="translate(861.86 720.98)"><path d="m0 0v-22.925h-14.479l-32.175 25.338 18.501 37.806z" fill="#913649"/></g><g transform="translate(820.56 630.76)"><path d="m0 0 11.535-12.741 4.826-29.36 5.84-2.751 17.777-24.469h-98.826l-7.706 7.706v0.016l47.442 82.722z" fill="#bee3ee"/></g><g transform="translate(796.69 756.89)"><path d="m0 0 37.018 37.034v-32.722l-18.501-37.806 32.174-25.338-26.817-23.197v-4.2l-16.892 16.265v35.393h-26.801l-16.603 34.571h5.47z" fill="#4c2778"/></g><g transform="translate(747.64 888.29)"><path d="m0 0h24.132l-14.077-26.545-13.079-3.217 37.612-53.62 24.936 19.031v12.871l17.246-17.069 9.298-9.202v-16.618l-37.017-37.034h-36.422l-35.425 73.761-6.966 104.49 16.683-46.847z" fill="#913649"/></g><g transform="translate(801.45 651.89)"><path d="m0 0-20.302 22.442-2.944-14.752-8.848 24.936-38.9 72.377h29.81l16.603-34.571h26.802v-35.393l16.891-16.265v-39.897z" fill="#2d296a"/></g><g transform="translate(734.16 1271.2)"><path d="m0 0v21.106l-4.521-4.52v5.534l10.715 10.714v34.138h-5.792v40.541l13.096 13.127 40.202-178.96h27.269l-15.477-9.782v-19.562l-55.437-9.862-6.757-3.346-11.132-5.502-5.631-1.689v43.308l-4.264 4.263 17.729 37.966z" fill="#bee3ee"/></g><g transform="translate(744.21 1138.2)"><path d="m0 0 12.002-5.775 31.081-92.873-0.451-0.145h-11.245v-84.01h39.141l-67.101-67.1h-13.079l-16.683 46.846v0.017l12.468 19.498h-9.653l-10.054 54.906 11.792 32.368v98.938h16.232z" fill="#ffe3b5"/></g><g transform="translate(801.45 651.89)"><path d="m0 0-47.441-82.722v-0.016l-15.01 15.009 30.357 49.679v50.676l8.848-24.936 2.944 14.752z" fill="#fff"/></g><g transform="translate(687 1422.8)"><path d="m0 0-34.282-34.282v65.057l15.83 16.281-6.178 12.87 99.742 55.502-40.733-115.43z" fill="#4c2778"/></g><g transform="translate(698.67 926.24)"><path d="m0 0v30.244l6.339 6.339-7.239 7.239v44.514h-4.296l10.762 35.393v36.696l-4.262-4.247v11.792l6.113 16.489-6.113 9.46v11.148l7.85 9.556h14.608v-98.938l-11.792-32.368 10.054-54.906h9.653l-12.468-19.498v-0.017l6.966-104.49 35.425-73.762h-29.811l-14.993 27.913 5.357 23.986h-8.848l-13.674 58.317 7.786 14.479-7.417 12.613z" fill="#4c2778"/></g><g transform="translate(744.21 1173.7)"><path d="m0 0v-35.457l-5.55 2.671h-30.84l-0.852 1.496 3.941 2.252h26.544v25.692z" fill="#fff"/></g><g transform="translate(740.35 1338.1)"><path d="m0 0v-34.138l-10.715-10.714v-5.534l4.521 4.52v-21.106l-40.717-40.718h-36.294v9.556l13.626 19.498-10.811 11.873v56.37l-7.239 9.653v51.11l34.282 34.282h34.379l-15.572-44.111h28.748v-40.541z" fill="#913649"/></g><g transform="translate(720.69 1163.1)"><path d="m0 0 5.631 1.689 11.132 5.502v-25.691h-26.544l-3.942-2.253-10.409-5.92v-15.734l-1.447 0.226h-0.017l-5.582 11.486v21.316z" fill="#19142e"/></g><g transform="translate(734.16 1271.2)"><path d="m0 0v-22.523l-17.729-37.966 4.264-4.263v-43.308l-31.178-9.379v-21.316l5.582-11.486-10.698 1.689-23.632 42.583v35.988l5.63 5.631h-9.25v23.632h36.294z" fill="#772167"/></g><g transform="translate(705.86 550.65)"><path d="m0 0-35.457-22.313-20.624 26.141v17.97h49.067l23.97-11.132z" fill="#19142e"/></g><g transform="translate(706.97 1142.4)"><path d="m0 0 0.853-1.496-7.851-9.556v-11.149l-3.411 0.547v15.734z" fill="#fff"/></g><g transform="translate(696.56 1120.7)"><path d="m0 0 3.411-0.547 6.113-9.459-6.113-16.49v-11.792l4.263 4.247v-26.03l-15.734 20.399v27.864l-40.701 18.694 4.118 4.826h10.86l16.891-9.041 4.73-0.756 10.698-1.689h0.017z" fill="#8a6faf"/></g><g transform="translate(705.01 962.83)"><path d="m0 0-6.339-6.339v-30.244l-17.471 37.179v63.513l23.038 23.037-10.763-35.393h4.296v-44.514z" fill="#8a6faf"/></g><g transform="translate(704.23 1060.6)"><path d="m0 0v-10.666l-23.037-23.037v-63.513l-0.853 1.817-36.873 48.939-11.469 33.188 3.732 64.382 7.609-7.609v-64.736l20.913-35.28 11.327 11.341v73.73l-18.839-6.243v21.188h13.948l17.809-23.102z" fill="#ffcf47"/></g><g transform="translate(670.4 528.33)"><path d="m0 0 20.528-26.014v-41.553l-54.569 49.871v40.894l13.417 20.913v-17.969z" fill="#251b5b"/></g><g transform="translate(656.74 1104.1)"><path d="m0 0h-13.4l-7.61 7.609 0.097 1.77 11.969 14.077 40.701-18.694v-27.864l-17.809 23.102z" fill="#ef7d00"/></g><g transform="translate(675.58 1089.2)"><path d="m0 0v-73.729l-11.326-11.342v60.328l-7.513 7.513v10.988z" fill="#fff"/></g><g transform="translate(656.74 1083)"><path d="m0 0v-10.988l7.513-7.512v-60.329l-20.913 35.28v64.736h13.4z" fill="#db3534"/></g><g transform="translate(469.85 453.93)"><path d="m0 0v-164.09l-163.54-163.55-121.65 221.91 14.286 8.865 246.52 79.439z" fill="#26358c"/></g><g transform="translate(306.31 126.29)"><path d="m0 0 70.511-128.59h-199.1z" fill="#251b5b"/></g><g transform="translate(184.66 348.2)"><path d="m0 0 121.65-221.91-128.59-128.59h-179.97v234.65z" fill="#26358c"/></g></g></g></g></svg>
